<svg width="196" height="124" viewBox="0 0 196 124" fill="none" xmlns="http://www.w3.org/2000/svg">
<path d="M15 104.48C15 105.056 14.888 105.52 14.664 105.872C14.456 106.208 14.224 106.472 13.968 106.664C13.68 106.888 13.344 107.04 12.96 107.12V107.36C13.408 107.456 13.808 107.632 14.16 107.888C14.464 108.112 14.736 108.432 14.976 108.848C15.232 109.248 15.36 109.792 15.36 110.48V112.04C15.36 114.84 13.96 116.24 11.16 116.24H5.64C2.84 116.24 1.44 114.84 1.44 112.04V110.48C1.44 109.792 1.56 109.248 1.8 108.848C2.056 108.432 2.336 108.112 2.64 107.888C2.992 107.632 3.392 107.456 3.84 107.36V107.12C3.44 107.04 3.096 106.888 2.808 106.664C2.552 106.472 2.32 106.208 2.112 105.872C1.904 105.52 1.8 105.056 1.8 104.48V103.16C1.8 100.36 3.2 98.96 6 98.96H10.8C13.6 98.96 15 100.36 15 103.16V104.48ZM6.6 109.16C5.72 109.16 5.28 109.6 5.28 110.48V111.56C5.28 112.44 5.72 112.88 6.6 112.88H10.2C11.08 112.88 11.52 112.44 11.52 111.56V110.48C11.52 109.6 11.08 109.16 10.2 109.16H6.6ZM6.96 102.32C6.08 102.32 5.64 102.76 5.64 103.64V104.48C5.64 105.36 6.08 105.8 6.96 105.8H9.84C10.72 105.8 11.16 105.36 11.16 104.48V103.64C11.16 102.76 10.72 102.32 9.84 102.32H6.96ZM35.6437 104.48C35.6437 105.056 35.5317 105.52 35.3077 105.872C35.0998 106.208 34.8678 106.472 34.6117 106.664C34.3237 106.888 33.9877 107.04 33.6037 107.12V107.36C34.0517 107.456 34.4517 107.632 34.8038 107.888C35.1077 108.112 35.3797 108.432 35.6197 108.848C35.8758 109.248 36.0038 109.792 36.0038 110.48V112.04C36.0038 114.84 34.6038 116.24 31.8038 116.24H26.2837C23.4837 116.24 22.0837 114.84 22.0837 112.04V110.48C22.0837 109.792 22.2037 109.248 22.4437 108.848C22.6997 108.432 22.9797 108.112 23.2837 107.888C23.6357 107.632 24.0357 107.456 24.4837 107.36V107.12C24.0837 107.04 23.7397 106.888 23.4517 106.664C23.1957 106.472 22.9637 106.208 22.7557 105.872C22.5477 105.52 22.4437 105.056 22.4437 104.48V103.16C22.4437 100.36 23.8437 98.96 26.6437 98.96H31.4437C34.2437 98.96 35.6437 100.36 35.6437 103.16V104.48ZM27.2437 109.16C26.3637 109.16 25.9237 109.6 25.9237 110.48V111.56C25.9237 112.44 26.3637 112.88 27.2437 112.88H30.8437C31.7237 112.88 32.1637 112.44 32.1637 111.56V110.48C32.1637 109.6 31.7237 109.16 30.8437 109.16H27.2437ZM27.6037 102.32C26.7237 102.32 26.2837 102.76 26.2837 103.64V104.48C26.2837 105.36 26.7237 105.8 27.6037 105.8H30.4837C31.3637 105.8 31.8038 105.36 31.8038 104.48V103.64C31.8038 102.76 31.3637 102.32 30.4837 102.32H27.6037ZM52.9284 112.04C52.9284 114.84 51.5284 116.24 48.7284 116.24H42.7284C39.9284 116.24 38.5284 114.84 38.5284 112.04V103.16C38.5284 100.36 39.9284 98.96 42.7284 98.96H48.7284C51.5284 98.96 52.9284 100.36 52.9284 103.16V112.04ZM49.0884 103.64C49.0884 102.76 48.6484 102.32 47.7684 102.32H43.6884C42.8084 102.32 42.3684 102.76 42.3684 103.64V111.56C42.3684 112.44 42.8084 112.88 43.6884 112.88H47.7684C48.6484 112.88 49.0884 112.44 49.0884 111.56V103.64ZM70.0941 112.04C70.0941 114.84 68.6941 116.24 65.8941 116.24H59.8941C57.0941 116.24 55.6941 114.84 55.6941 112.04V103.16C55.6941 100.36 57.0941 98.96 59.8941 98.96H65.8941C68.6941 98.96 70.0941 100.36 70.0941 103.16V112.04ZM66.2541 103.64C66.2541 102.76 65.8141 102.32 64.9341 102.32H60.8541C59.9741 102.32 59.5341 102.76 59.5341 103.64V111.56C59.5341 112.44 59.9741 112.88 60.8541 112.88H64.9341C65.8141 112.88 66.2541 112.44 66.2541 111.56V103.64ZM90.6188 104.48C90.6188 105.056 90.5068 105.52 90.2828 105.872C90.0748 106.208 89.8428 106.472 89.5868 106.664C89.2988 106.888 88.9628 107.04 88.5788 107.12V107.36C89.0268 107.456 89.4268 107.632 89.7788 107.888C90.0828 108.112 90.3548 108.432 90.5948 108.848C90.8508 109.248 90.9788 109.792 90.9788 110.48V112.04C90.9788 114.84 89.5788 116.24 86.7788 116.24H81.2588C78.4588 116.24 77.0588 114.84 77.0588 112.04V110.48C77.0588 109.792 77.1788 109.248 77.4188 108.848C77.6748 108.432 77.9548 108.112 78.2588 107.888C78.6108 107.632 79.0108 107.456 79.4588 107.36V107.12C79.0588 107.04 78.7148 106.888 78.4268 106.664C78.1708 106.472 77.9388 106.208 77.7308 105.872C77.5228 105.52 77.4188 105.056 77.4188 104.48V103.16C77.4188 100.36 78.8188 98.96 81.6188 98.96H86.4188C89.2188 98.96 90.6188 100.36 90.6188 103.16V104.48ZM82.2188 109.16C81.3388 109.16 80.8988 109.6 80.8988 110.48V111.56C80.8988 112.44 81.3388 112.88 82.2188 112.88H85.8188C86.6988 112.88 87.1388 112.44 87.1388 111.56V110.48C87.1388 109.6 86.6988 109.16 85.8188 109.16H82.2188ZM82.5788 102.32C81.6988 102.32 81.2588 102.76 81.2588 103.64V104.48C81.2588 105.36 81.6988 105.8 82.5788 105.8H85.4588C86.3388 105.8 86.7788 105.36 86.7788 104.48V103.64C86.7788 102.76 86.3388 102.32 85.4588 102.32H82.5788ZM93.3834 111.2C93.3834 110.8 93.5834 110.6 93.9834 110.6H96.6234C97.0234 110.6 97.2234 110.8 97.2234 111.2V111.56C97.2234 112.44 97.6634 112.88 98.5434 112.88H101.303C102.183 112.88 102.623 112.44 102.623 111.56V109.52H97.2234C94.4234 109.52 93.0234 108.12 93.0234 105.32V103.16C93.0234 100.36 94.4234 98.96 97.2234 98.96H102.263C105.063 98.96 106.463 100.36 106.463 103.16V112.04C106.463 114.84 105.063 116.24 102.263 116.24H97.5834C94.7834 116.24 93.3834 114.84 93.3834 112.04V111.2ZM98.1834 102.32C97.3034 102.32 96.8634 102.76 96.8634 103.64V104.84C96.8634 105.72 97.3034 106.16 98.1834 106.16H102.623V103.64C102.623 102.76 102.183 102.32 101.303 102.32H98.1834ZM123.616 112.04C123.616 114.84 122.216 116.24 119.416 116.24H113.416C110.616 116.24 109.216 114.84 109.216 112.04V103.16C109.216 100.36 110.616 98.96 113.416 98.96H119.416C122.216 98.96 123.616 100.36 123.616 103.16V112.04ZM119.776 103.64C119.776 102.76 119.336 102.32 118.456 102.32H114.376C113.496 102.32 113.056 102.76 113.056 103.64V111.56C113.056 112.44 113.496 112.88 114.376 112.88H118.456C119.336 112.88 119.776 112.44 119.776 111.56V103.64ZM144.141 104.48C144.141 105.056 144.029 105.52 143.805 105.872C143.597 106.208 143.365 106.472 143.109 106.664C142.821 106.888 142.485 107.04 142.101 107.12V107.36C142.549 107.456 142.949 107.632 143.301 107.888C143.605 108.112 143.877 108.432 144.117 108.848C144.373 109.248 144.501 109.792 144.501 110.48V112.04C144.501 114.84 143.101 116.24 140.301 116.24H134.781C131.981 116.24 130.581 114.84 130.581 112.04V110.48C130.581 109.792 130.701 109.248 130.941 108.848C131.197 108.432 131.477 108.112 131.781 107.888C132.133 107.632 132.533 107.456 132.981 107.36V107.12C132.581 107.04 132.237 106.888 131.949 106.664C131.693 106.472 131.461 106.208 131.253 105.872C131.045 105.52 130.941 105.056 130.941 104.48V103.16C130.941 100.36 132.341 98.96 135.141 98.96H139.941C142.741 98.96 144.141 100.36 144.141 103.16V104.48ZM135.741 109.16C134.861 109.16 134.421 109.6 134.421 110.48V111.56C134.421 112.44 134.861 112.88 135.741 112.88H139.341C140.221 112.88 140.661 112.44 140.661 111.56V110.48C140.661 109.6 140.221 109.16 139.341 109.16H135.741ZM136.101 102.32C135.221 102.32 134.781 102.76 134.781 103.64V104.48C134.781 105.36 135.221 105.8 136.101 105.8H138.981C139.861 105.8 140.301 105.36 140.301 104.48V103.64C140.301 102.76 139.861 102.32 138.981 102.32H136.101ZM146.905 111.2C146.905 110.8 147.105 110.6 147.505 110.6H150.145C150.545 110.6 150.745 110.8 150.745 111.2V111.56C150.745 112.44 151.185 112.88 152.065 112.88H154.825C155.705 112.88 156.145 112.44 156.145 111.56V109.52H150.745C147.945 109.52 146.545 108.12 146.545 105.32V103.16C146.545 100.36 147.945 98.96 150.745 98.96H155.785C158.585 98.96 159.985 100.36 159.985 103.16V112.04C159.985 114.84 158.585 116.24 155.785 116.24H151.105C148.305 116.24 146.905 114.84 146.905 112.04V111.2ZM151.705 102.32C150.825 102.32 150.385 102.76 150.385 103.64V104.84C150.385 105.72 150.825 106.16 151.705 106.16H156.145V103.64C156.145 102.76 155.705 102.32 154.825 102.32H151.705ZM177.138 112.04C177.138 114.84 175.738 116.24 172.938 116.24H166.938C164.138 116.24 162.738 114.84 162.738 112.04V103.16C162.738 100.36 164.138 98.96 166.938 98.96H172.938C175.738 98.96 177.138 100.36 177.138 103.16V112.04ZM173.298 103.64C173.298 102.76 172.858 102.32 171.978 102.32H167.898C167.018 102.32 166.578 102.76 166.578 103.64V111.56C166.578 112.44 167.018 112.88 167.898 112.88H171.978C172.858 112.88 173.298 112.44 173.298 111.56V103.64ZM194.303 112.04C194.303 114.84 192.903 116.24 190.103 116.24H184.103C181.303 116.24 179.903 114.84 179.903 112.04V103.16C179.903 100.36 181.303 98.96 184.103 98.96H190.103C192.903 98.96 194.303 100.36 194.303 103.16V112.04ZM190.463 103.64C190.463 102.76 190.023 102.32 189.143 102.32H185.063C184.183 102.32 183.743 102.76 183.743 103.64V111.56C183.743 112.44 184.183 112.88 185.063 112.88H189.143C190.023 112.88 190.463 112.44 190.463 111.56V103.64Z" fill="#1B1C21"/>
<rect x="56" width="40" height="40" rx="20" fill="#FF3E79"/>
<path fill-rule="evenodd" clip-rule="evenodd" d="M84 11H68C66.9 11 66.01 11.9 66.01 13L66 31L70 26H84C85.1 26 86 25.1 86 24V13C86 11.9 85.1 11 84 11ZM77 22H71C70.45 22 70 21.55 70 21C70 20.45 70.45 20 71 20H77C77.55 20 78 20.45 78 21C78 21.55 77.55 22 77 22ZM81 17H71C70.45 17 70 16.55 70 16C70 15.45 70.45 15 71 15H81C81.55 15 82 15.45 82 16C82 16.55 81.55 17 81 17Z" fill="white"/>
<mask id="mask0_0_2406" style="mask-type:luminance" maskUnits="userSpaceOnUse" x="66" y="11" width="20" height="20">
<path fill-rule="evenodd" clip-rule="evenodd" d="M84 11H68C66.9 11 66.01 11.9 66.01 13L66 31L70 26H84C85.1 26 86 25.1 86 24V13C86 11.9 85.1 11 84 11ZM77 22H71C70.45 22 70 21.55 70 21C70 20.45 70.45 20 71 20H77C77.55 20 78 20.45 78 21C78 21.55 77.55 22 77 22ZM81 17H71C70.45 17 70 16.55 70 16C70 15.45 70.45 15 71 15H81C81.55 15 82 15.45 82 16C82 16.55 81.55 17 81 17Z" fill="white"/>
</mask>
<g mask="url(#mask0_0_2406)">
</g>
<rect x="112" width="40" height="40" rx="20" fill="#FF3E79"/>
<path d="M132.5 19C134.985 19 137 16.9853 137 14.5C137 12.0147 134.985 10 132.5 10C130.015 10 128 12.0147 128 14.5C128 16.9853 130.015 19 132.5 19Z" fill="white"/>
<path d="M122.017 26.6118C121.887 27.3412 122.535 28 123.339 28H140.66C141.49 28 142.113 27.3412 141.983 26.6118C141.231 22.4 137.056 20 132 20C126.943 20 122.769 22.4 122.017 26.6118Z" fill="white"/>
<rect width="40" height="40" rx="20" fill="#FF3E79"/>
<path fill-rule="evenodd" clip-rule="evenodd" d="M12.7602 23.25L15.3002 22.96C15.9102 22.89 16.5102 23.1 16.9402 23.53L18.7802 25.37C21.6102 23.93 23.9302 21.62 25.3702 18.78L23.5202 16.93C23.0902 16.5 22.8802 15.9 22.9502 15.29L23.2402 12.77C23.3602 11.76 24.2102 11 25.2302 11H26.9602C28.0902 11 29.0302 11.94 28.9602 13.07C28.4302 21.61 21.6002 28.43 13.0702 28.96C11.9402 29.03 11.0002 28.09 11.0002 26.96V25.23C10.9902 24.22 11.7502 23.37 12.7602 23.25Z" fill="white"/>
<path d="M7.44 72.76C7.44 72.92 7.36 73 7.2 73H6.32C6.16 73 6.08 72.92 6.08 72.76V67.16C6.08 66.7973 5.968 66.5093 5.744 66.296C5.53067 66.072 5.24267 65.96 4.88 65.96H4.32C3.84 65.96 3.44 66.12 3.12 66.44C2.8 66.76 2.64 67.16 2.64 67.64V72.76C2.64 72.92 2.56 73 2.4 73H1.52C1.36 73 1.28 72.92 1.28 72.76V65.08C1.28 64.92 1.36 64.84 1.52 64.84H2.4C2.56 64.84 2.64 64.92 2.64 65.08V65.64H2.72C2.80533 65.4587 2.928 65.2987 3.088 65.16C3.22667 65.0427 3.408 64.936 3.632 64.84C3.856 64.7333 4.13867 64.68 4.48 64.68H4.88C5.24267 64.68 5.536 64.7333 5.76 64.84C5.99467 64.936 6.18667 65.0427 6.336 65.16C6.496 65.2987 6.624 65.4587 6.72 65.64H6.8C6.88533 65.4587 7.01333 65.2987 7.184 65.16C7.32267 65.0427 7.50933 64.936 7.744 64.84C7.97867 64.7333 8.27733 64.68 8.64 64.68H9.68C10.5227 64.68 11.1573 64.8933 11.584 65.32C12.0213 65.7467 12.24 66.36 12.24 67.16V72.76C12.24 72.92 12.16 73 12 73H11.12C10.96 73 10.88 72.92 10.88 72.76V67.16C10.88 66.7973 10.768 66.5093 10.544 66.296C10.3307 66.072 10.0427 65.96 9.68 65.96H8.64C8.27733 65.96 7.984 66.072 7.76 66.296C7.54667 66.5093 7.44 66.7973 7.44 67.16V72.76ZM14.2756 70.52C14.2756 68.9733 15.0756 68.2 16.6756 68.2H19.6356V67.16C19.6356 66.7973 19.5236 66.5093 19.2996 66.296C19.0863 66.072 18.7983 65.96 18.4356 65.96H17.3156C16.953 65.96 16.6596 66.072 16.4356 66.296C16.2223 66.5093 16.1156 66.7973 16.1156 67.16C16.1156 67.32 16.0356 67.4 15.8756 67.4H14.9956C14.8356 67.4 14.7556 67.32 14.7556 67.16C14.7556 66.36 14.969 65.7467 15.3956 65.32C15.833 64.8933 16.473 64.68 17.3156 64.68H18.4356C19.2783 64.68 19.913 64.8933 20.3396 65.32C20.777 65.7467 20.9956 66.36 20.9956 67.16V72.76C20.9956 72.92 20.9156 73 20.7556 73H19.8756C19.7156 73 19.6356 72.92 19.6356 72.76V72.2H19.5556C19.4703 72.3813 19.3476 72.5413 19.1876 72.68C19.049 72.7973 18.8676 72.904 18.6436 73C18.4196 73.1067 18.137 73.16 17.7956 73.16H16.6756C15.0756 73.16 14.2756 72.3867 14.2756 70.84V70.52ZM15.6356 70.84C15.6356 71.16 15.7263 71.416 15.9076 71.608C16.0996 71.7893 16.3556 71.88 16.6756 71.88H17.9556C18.4356 71.88 18.8356 71.72 19.1556 71.4C19.4756 71.08 19.6356 70.68 19.6356 70.2V69.48H16.6756C16.3556 69.48 16.0996 69.576 15.9076 69.768C15.7263 69.9493 15.6356 70.2 15.6356 70.52V70.84ZM24.4688 61.8C24.6288 61.8 24.7088 61.88 24.7088 62.04V62.92C24.7088 63.08 24.6288 63.16 24.4688 63.16H23.5888C23.4288 63.16 23.3488 63.08 23.3488 62.92V62.04C23.3488 61.88 23.4288 61.8 23.5888 61.8H24.4688ZM23.5888 73C23.4288 73 23.3488 72.92 23.3488 72.76V65.08C23.3488 64.92 23.4288 64.84 23.5888 64.84H24.4688C24.6288 64.84 24.7088 64.92 24.7088 65.08V72.76C24.7088 72.92 24.6288 73 24.4688 73H23.5888ZM27.3106 73C27.1506 73 27.0706 72.92 27.0706 72.76V62.04C27.0706 61.88 27.1506 61.8 27.3106 61.8H28.1906C28.3506 61.8 28.4306 61.88 28.4306 62.04V72.76C28.4306 72.92 28.3506 73 28.1906 73H27.3106ZM36.0725 70.2C36.0725 70.5733 36.2592 70.76 36.6325 70.76H38.0725C38.5525 70.76 38.7925 70.52 38.7925 70.04V67.64C38.7925 67.16 38.5525 66.92 38.0725 66.92H36.6325C36.2592 66.92 36.0725 67.1067 36.0725 67.48V70.2ZM42.6325 64.84C42.6325 63.9333 42.1792 63.48 41.2725 63.48H33.7525C32.8458 63.48 32.3925 63.9333 32.3925 64.84V72.84C32.3925 73.7467 32.8458 74.2 33.7525 74.2H42.4725C42.6325 74.2 42.7125 74.28 42.7125 74.44V75.32C42.7125 75.48 42.6325 75.56 42.4725 75.56H33.7525C32.8245 75.56 32.1258 75.3253 31.6565 74.856C31.1872 74.3973 30.9525 73.7253 30.9525 72.84V64.84C30.9525 63.9547 31.1872 63.2827 31.6565 62.824C32.1258 62.3547 32.8245 62.12 33.7525 62.12H41.2725C42.2005 62.12 42.8992 62.3547 43.3685 62.824C43.8378 63.2827 44.0725 63.9547 44.0725 64.84V69.32C44.0725 70.248 43.8485 70.936 43.4005 71.384C42.9525 71.8213 42.2432 72.04 41.2725 72.04H39.0325C38.8725 72.04 38.7925 71.96 38.7925 71.8V71.56H38.7125C38.6592 71.6773 38.5845 71.784 38.4885 71.88C38.4032 71.9653 38.2965 72.04 38.1685 72.104C38.0405 72.168 37.8752 72.2 37.6725 72.2H36.6325C35.9498 72.2 35.4325 72.0293 35.0805 71.688C34.7285 71.336 34.5525 70.84 34.5525 70.2V67.48C34.5525 66.84 34.7285 66.3493 35.0805 66.008C35.4325 65.656 35.9498 65.48 36.6325 65.48H37.6725C37.8752 65.48 38.0405 65.512 38.1685 65.576C38.2965 65.64 38.4032 65.7147 38.4885 65.8C38.5845 65.896 38.6592 66.0027 38.7125 66.12H38.7925V65.88C38.7925 65.72 38.8725 65.64 39.0325 65.64H40.0725C40.2325 65.64 40.3125 65.72 40.3125 65.88V70.68H41.2725C42.1792 70.68 42.6325 70.2267 42.6325 69.32V64.84ZM47.6363 70.68C47.6363 71.0427 47.7429 71.336 47.9563 71.56C48.1803 71.7733 48.4736 71.88 48.8363 71.88H50.6763C51.0389 71.88 51.3269 71.7733 51.5403 71.56C51.7643 71.336 51.8763 71.0427 51.8763 70.68V70.28C51.8763 70.12 51.9563 70.04 52.1163 70.04H52.9963C53.1562 70.04 53.2362 70.12 53.2362 70.28V70.68C53.2362 71.48 53.0176 72.0933 52.5803 72.52C52.1536 72.9467 51.5189 73.16 50.6763 73.16H48.8363C47.9936 73.16 47.3536 72.9467 46.9163 72.52C46.4896 72.0933 46.2763 71.48 46.2763 70.68V67.16C46.2763 66.36 46.4896 65.7467 46.9163 65.32C47.3536 64.8933 47.9936 64.68 48.8363 64.68H50.6763C51.5189 64.68 52.1536 64.8933 52.5803 65.32C53.0176 65.7467 53.2362 66.36 53.2362 67.16V67.56C53.2362 67.72 53.1562 67.8 52.9963 67.8H52.1163C51.9563 67.8 51.8763 67.72 51.8763 67.56V67.16C51.8763 66.7973 51.7643 66.5093 51.5403 66.296C51.3269 66.072 51.0389 65.96 50.6763 65.96H48.8363C48.4736 65.96 48.1803 66.072 47.9563 66.296C47.7429 66.5093 47.6363 66.7973 47.6363 67.16V70.68ZM59.6831 71.72C60.0458 71.72 60.3338 71.6133 60.5471 71.4C60.7711 71.176 60.8831 70.8827 60.8831 70.52V67.16C60.8831 66.7973 60.7711 66.5093 60.5471 66.296C60.3338 66.072 60.0458 65.96 59.6831 65.96H58.3231C57.8431 65.96 57.4431 66.12 57.1231 66.44C56.8031 66.76 56.6431 67.16 56.6431 67.64V71.72H59.6831ZM56.6431 73V75.8C56.6431 75.96 56.5631 76.04 56.4031 76.04H55.5231C55.3631 76.04 55.2831 75.96 55.2831 75.8V65.08C55.2831 64.92 55.3631 64.84 55.5231 64.84H56.4031C56.5631 64.84 56.6431 64.92 56.6431 65.08V65.64H56.7231C56.8085 65.4587 56.9311 65.2987 57.0911 65.16C57.2298 65.0427 57.4111 64.936 57.6351 64.84C57.8591 64.7333 58.1418 64.68 58.4831 64.68H59.6831C60.5258 64.68 61.1605 64.8933 61.5871 65.32C62.0245 65.7467 62.2431 66.36 62.2431 67.16V70.52C62.2431 71.32 62.0245 71.9333 61.5871 72.36C61.1605 72.7867 60.5258 73 59.6831 73H56.6431ZM64.1225 67C64.1225 65.4533 64.9225 64.68 66.5225 64.68H68.1225C68.9652 64.68 69.5998 64.8933 70.0265 65.32C70.4638 65.7467 70.6825 66.36 70.6825 67.16V67.32C70.6825 67.48 70.6025 67.56 70.4425 67.56H69.5625C69.4025 67.56 69.3225 67.48 69.3225 67.32V67.16C69.3225 66.7973 69.2105 66.5093 68.9865 66.296C68.7732 66.072 68.4852 65.96 68.1225 65.96H66.5225C66.2025 65.96 65.9465 66.056 65.7545 66.248C65.5732 66.4293 65.4825 66.68 65.4825 67V67.08C65.4825 67.24 65.5358 67.3733 65.6425 67.48C65.7492 67.5867 65.8825 67.6667 66.0425 67.72L69.5625 68.84C69.9252 68.9573 70.2292 69.16 70.4745 69.448C70.7198 69.736 70.8425 70.12 70.8425 70.6V70.84C70.8425 72.3867 70.0425 73.16 68.4425 73.16H66.5225C65.6798 73.16 65.0398 72.9467 64.6025 72.52C64.1758 72.0933 63.9625 71.48 63.9625 70.68V70.52C63.9625 70.36 64.0425 70.28 64.2025 70.28H65.0825C65.2425 70.28 65.3225 70.36 65.3225 70.52V70.68C65.3225 71.0427 65.4292 71.336 65.6425 71.56C65.8665 71.7733 66.1598 71.88 66.5225 71.88H68.4425C68.7625 71.88 69.0132 71.7893 69.1945 71.608C69.3865 71.416 69.4825 71.16 69.4825 70.84V70.68C69.4825 70.52 69.4292 70.3867 69.3225 70.28C69.2158 70.1733 69.0825 70.0933 68.9225 70.04L65.4025 68.92C65.0398 68.8027 64.7358 68.6 64.4905 68.312C64.2452 68.024 64.1225 67.64 64.1225 67.16V67ZM72.4831 73C72.3231 73 72.2431 72.92 72.2431 72.76V71.8C72.2431 71.64 72.3231 71.56 72.4831 71.56H73.4431C73.6031 71.56 73.6831 71.64 73.6831 71.8V72.76C73.6831 72.92 73.6031 73 73.4431 73H72.4831ZM76.6019 70.68C76.6019 71.0427 76.7085 71.336 76.9219 71.56C77.1459 71.7733 77.4392 71.88 77.8019 71.88H79.6419C80.0045 71.88 80.2925 71.7733 80.5059 71.56C80.7299 71.336 80.8419 71.0427 80.8419 70.68V70.28C80.8419 70.12 80.9219 70.04 81.0819 70.04H81.9619C82.1219 70.04 82.2019 70.12 82.2019 70.28V70.68C82.2019 71.48 81.9832 72.0933 81.5459 72.52C81.1192 72.9467 80.4845 73.16 79.6419 73.16H77.8019C76.9592 73.16 76.3192 72.9467 75.8819 72.52C75.4552 72.0933 75.2419 71.48 75.2419 70.68V67.16C75.2419 66.36 75.4552 65.7467 75.8819 65.32C76.3192 64.8933 76.9592 64.68 77.8019 64.68H79.6419C80.4845 64.68 81.1192 64.8933 81.5459 65.32C81.9832 65.7467 82.2019 66.36 82.2019 67.16V67.56C82.2019 67.72 82.1219 67.8 81.9619 67.8H81.0819C80.9219 67.8 80.8419 67.72 80.8419 67.56V67.16C80.8419 66.7973 80.7299 66.5093 80.5059 66.296C80.2925 66.072 80.0045 65.96 79.6419 65.96H77.8019C77.4392 65.96 77.1459 66.072 76.9219 66.296C76.7085 66.5093 76.6019 66.7973 76.6019 67.16V70.68ZM89.8488 67.16C89.8488 66.7973 89.7368 66.5093 89.5128 66.296C89.2994 66.072 89.0114 65.96 88.6488 65.96H86.6488C86.2861 65.96 85.9928 66.072 85.7688 66.296C85.5554 66.5093 85.4488 66.7973 85.4488 67.16V70.68C85.4488 71.0427 85.5554 71.336 85.7688 71.56C85.9928 71.7733 86.2861 71.88 86.6488 71.88H88.6488C89.0114 71.88 89.2994 71.7733 89.5128 71.56C89.7368 71.336 89.8488 71.0427 89.8488 70.68V67.16ZM91.2088 70.68C91.2088 71.48 90.9901 72.0933 90.5528 72.52C90.1261 72.9467 89.4914 73.16 88.6488 73.16H86.6488C85.8061 73.16 85.1661 72.9467 84.7288 72.52C84.3021 72.0933 84.0888 71.48 84.0888 70.68V67.16C84.0888 66.36 84.3021 65.7467 84.7288 65.32C85.1661 64.8933 85.8061 64.68 86.6488 64.68H88.6488C89.4914 64.68 90.1261 64.8933 90.5528 65.32C90.9901 65.7467 91.2088 66.36 91.2088 67.16V70.68ZM99.5681 72.76C99.5681 72.92 99.4881 73 99.3281 73H98.4481C98.2881 73 98.2081 72.92 98.2081 72.76V67.16C98.2081 66.7973 98.0961 66.5093 97.8721 66.296C97.6588 66.072 97.3708 65.96 97.0081 65.96H96.4481C95.9681 65.96 95.5681 66.12 95.2481 66.44C94.9281 66.76 94.7681 67.16 94.7681 67.64V72.76C94.7681 72.92 94.6881 73 94.5281 73H93.6481C93.4881 73 93.4081 72.92 93.4081 72.76V65.08C93.4081 64.92 93.4881 64.84 93.6481 64.84H94.5281C94.6881 64.84 94.7681 64.92 94.7681 65.08V65.64H94.8481C94.9335 65.4587 95.0561 65.2987 95.2161 65.16C95.3548 65.0427 95.5361 64.936 95.7601 64.84C95.9841 64.7333 96.2668 64.68 96.6081 64.68H97.0081C97.3708 64.68 97.6641 64.7333 97.8881 64.84C98.1228 64.936 98.3148 65.0427 98.4641 65.16C98.6241 65.2987 98.7521 65.4587 98.8481 65.64H98.9281C99.0135 65.4587 99.1415 65.2987 99.3121 65.16C99.4508 65.0427 99.6375 64.936 99.8721 64.84C100.107 64.7333 100.405 64.68 100.768 64.68H101.808C102.651 64.68 103.285 64.8933 103.712 65.32C104.149 65.7467 104.368 66.36 104.368 67.16V72.76C104.368 72.92 104.288 73 104.128 73H103.248C103.088 73 103.008 72.92 103.008 72.76V67.16C103.008 66.7973 102.896 66.5093 102.672 66.296C102.459 66.072 102.171 65.96 101.808 65.96H100.768C100.405 65.96 100.112 66.072 99.8881 66.296C99.6748 66.5093 99.5681 66.7973 99.5681 67.16V72.76Z" fill="#1B1C21"/>
</svg>
